<svg width="906" height="803" viewBox="0 0 906 803" fill="none" xmlns="http://www.w3.org/2000/svg">
<path d="M547.216 144.577C486.227 148.769 437.915 174.075 402.28 220.494C366.646 266.913 351.021 322.015 355.405 385.797C359.757 449.115 385.335 501.384 432.138 542.605C478.941 583.826 533.769 602.277 596.62 597.957C650.626 594.245 695.042 583.708 729.867 566.346L715.755 361.03L749.276 358.726L764.443 579.405C725.667 607.33 669.732 623.804 596.637 628.828C524.009 633.82 460.842 613.136 407.136 566.776C353.399 519.951 324.051 460.456 319.091 388.293C314.099 315.665 332.72 253.107 374.953 200.621C417.155 147.669 473.872 118.746 545.104 113.85C600.972 110.01 658.179 115.433 716.724 130.12L709.565 158.678C652.545 145.758 598.429 141.057 547.216 144.577Z" fill="#010410"/>
<path d="M301.344 458.525L801.839 460.639L800.76 716.137L771.36 716.013L772.298 494.115L588.199 493.337L587.342 696.335L558.642 696.214L559.499 493.216L301.202 492.125L301.344 458.525Z" fill="#3656E6"/>
<path d="M170.982 356.92C170.739 382.119 176.608 402.71 188.588 418.692C200.569 434.675 217.525 442.772 239.457 442.983C264.656 443.225 287.389 432.943 307.657 412.137C322.267 397.343 337.85 378.359 354.407 355.184C370.502 331.538 382.091 315.315 389.176 306.516C396.261 297.717 405.931 287.076 418.185 274.593C441.27 251.948 467.745 240.768 497.611 241.056C536.342 241.428 565.615 254.777 585.43 281.102C604.782 306.956 614.234 343.215 613.785 389.88C613.341 436.077 600.836 474.692 576.27 505.724L551.932 488.689C573.703 457.164 584.759 423.669 585.1 388.204C585.441 352.739 578.239 325.135 563.495 305.392C548.755 285.183 527.853 274.948 500.788 274.688C477.455 274.463 455.893 284.29 436.101 304.167C421.967 318.032 406.619 336.785 390.058 360.427C373.501 383.602 361.678 399.823 354.588 409.088C347.032 418.349 337.127 429.221 324.873 441.704C300.846 465.274 273.199 476.909 241.934 476.608C210.669 476.307 186.275 465.106 168.754 443.003C151.237 420.433 142.667 389.55 143.043 350.351C143.42 311.153 151.459 275.995 167.159 244.878L192.943 257.027C178.666 285.824 171.345 319.122 170.982 356.92Z" fill="#3656E6"/>
</svg>
